<svg width="555" height="532" viewBox="0 0 555 532" fill="none" xmlns="http://www.w3.org/2000/svg">
<path d="M277.96 266.388C251.235 266.388 229.34 244.748 229.34 218.335C229.34 191.922 251.235 170.283 277.96 170.283C304.685 170.283 326.581 191.922 326.581 218.335C326.259 244.748 304.685 266.388 277.96 266.388ZM277.96 180.784C257.031 180.784 239.966 197.65 239.966 218.335C239.966 239.02 257.031 255.886 277.96 255.886C298.89 255.886 315.955 239.02 315.955 218.335C315.955 197.65 298.89 180.784 277.96 180.784Z" fill="black"/>
<path d="M361.033 340.218H194.565C191.667 340.218 189.413 337.99 189.413 335.126C189.413 291.528 226.764 260.023 277.96 260.023C329.157 260.023 366.507 291.528 366.507 335.126C366.507 337.99 364.253 340.218 361.033 340.218ZM200.039 329.716H355.56C352.662 295.029 320.785 270.525 277.638 270.525C234.814 270.525 202.937 295.029 200.039 329.716Z" fill="black"/>
<path d="M277.96 115.547C361.999 115.547 430.261 183.012 430.261 266.07C430.261 349.128 361.999 416.593 277.96 416.593C193.921 416.593 125.66 349.128 125.66 266.07C125.66 183.33 193.921 115.547 277.96 115.547ZM277.96 106C188.447 106 116 177.602 116 266.07C116 354.538 188.447 426.14 277.96 426.14C367.473 426.14 439.921 354.538 439.921 266.07C439.921 177.602 367.473 106 277.96 106Z" fill="black"/>
</svg>
