<svg xmlns="http://www.w3.org/2000/svg" width="183" height="126" viewBox="0 0 183 126" version="1.1">
	<path d="M 94 8.429 C 94 10.270, 96.730 13, 98.571 13 C 100.211 13, 100.483 14.584, 99 15.500 C 98.450 15.840, 98 17.441, 98 19.059 C 98 22.200, 97.136 22.736, 95.200 20.800 C 94.267 19.867, 94 20.508, 94 23.685 L 94 27.770 99.750 28.442 C 123.958 31.271, 146.541 44.931, 160.198 65.005 C 161.812 67.378, 161.898 66.026, 161.948 37.250 L 162 7 128 7 C 99.200 7, 94 7.218, 94 8.429 M 114.128 11.335 C 113.373 12.251, 111.460 13, 109.878 13 C 106.810 13, 106.273 13.873, 108.173 15.773 C 109.070 16.670, 109.061 17.571, 108.134 19.606 C 106.949 22.206, 106.988 22.252, 109.874 21.675 C 111.830 21.284, 113.231 21.573, 114.026 22.531 C 115.498 24.304, 117 23.535, 117 21.008 C 117 19.978, 117.900 18.849, 119 18.500 C 121.664 17.654, 121.523 16.559, 118.577 15.217 C 117.244 14.610, 116.007 13.113, 115.827 11.891 C 115.528 9.859, 115.383 9.812, 114.128 11.335 M 71 12.965 C 71 14.045, 69.997 15.467, 68.771 16.123 L 66.541 17.316 68.771 18.311 C 70.217 18.956, 71 20.184, 71 21.808 C 71 24.233, 71.061 24.255, 72.967 22.530 C 74.154 21.456, 75.772 20.969, 77.046 21.302 C 78.730 21.742, 79.016 21.514, 78.460 20.177 C 77.586 18.077, 77.581 16.932, 78.439 14.878 C 78.985 13.569, 78.623 13.349, 76.570 13.742 C 74.828 14.075, 73.829 13.719, 73.405 12.614 C 72.544 10.368, 71 10.593, 71 12.965 M 92.175 11.750 C 92.079 12.438, 91.100 13, 90 13 C 87.840 13, 87.322 14.463, 89.094 15.558 C 89.696 15.930, 89.983 17.307, 89.733 18.617 C 89.249 21.150, 89.698 21.478, 91.815 20.136 C 92.685 19.584, 92.998 17.812, 92.740 14.901 C 92.525 12.480, 92.271 11.063, 92.175 11.750 M 136.163 19.290 C 135.263 20.383, 133.924 20.735, 132.072 20.364 C 129.496 19.849, 129.347 20.005, 129.756 22.788 C 129.996 24.425, 129.699 26.068, 129.096 26.441 C 127.267 27.571, 127.867 29, 130.171 29 C 131.365 29, 133.185 29.762, 134.214 30.694 C 135.986 32.297, 136.117 32.270, 136.662 30.183 C 136.980 28.969, 138.309 27.709, 139.619 27.381 C 142.505 26.657, 142.619 25.868, 140.070 24.276 C 139.008 23.613, 137.996 21.854, 137.820 20.368 C 137.534 17.956, 137.356 17.840, 136.163 19.290 M 49 21.328 C 49 22.743, 48.253 24.319, 47.340 24.830 C 45.849 25.664, 45.893 25.872, 47.772 26.878 C 48.923 27.494, 50.163 28.937, 50.527 30.086 L 51.190 32.174 52.652 30.087 C 53.456 28.939, 55.004 28, 56.092 28 C 57.773 28, 57.906 27.693, 56.980 25.962 C 56.380 24.841, 56.150 23.102, 56.469 22.096 C 56.950 20.582, 56.614 20.351, 54.519 20.752 C 53.127 21.018, 51.316 20.677, 50.494 19.995 C 49.234 18.950, 49 19.159, 49 21.328 M 76.715 31.058 C 57.533 35.773, 40.074 47.445, 29.150 62.858 C 26.270 66.922, 26.156 67.401, 27.471 69.944 C 30.033 74.898, 38.123 84.057, 44.863 89.634 C 56.533 99.290, 75.756 107, 88.160 107 L 93 107 93 99 C 93 91.106, 92.966 91, 90.468 91 C 84.333 91, 76.256 85.348, 72.781 78.624 C 70.548 74.302, 69.834 65.882, 71.267 60.760 C 71.952 58.311, 71.685 57.875, 68.767 56.669 C 65.564 55.345, 65.477 55.379, 64.326 58.410 C 63.680 60.109, 63.118 64.296, 63.076 67.712 C 62.972 76.174, 65.925 83.710, 71.651 89.602 C 76.016 94.094, 76.077 94.238, 73.340 93.609 C 71.778 93.250, 66.370 90.938, 61.322 88.470 C 52.288 84.055, 43.225 76.934, 38.888 70.843 L 36.795 67.904 44.690 60.202 C 53.048 52.048, 60.255 47.244, 69.721 43.514 C 79.670 39.595, 80.432 39.585, 82.233 43.363 L 83.813 46.677 88.407 45.611 L 93 44.545 93 36.773 L 93 29 88.750 29.072 C 86.412 29.112, 80.997 30.006, 76.715 31.058 M 35.136 32.325 C 34.251 33.398, 32.957 33.776, 31.455 33.399 C 29.517 32.913, 29.224 33.142, 29.660 34.807 C 29.946 35.901, 29.674 37.742, 29.055 38.898 C 28.069 40.739, 28.204 41, 30.136 41 C 31.350 41, 33.165 41.745, 34.171 42.655 C 35.891 44.212, 36 44.176, 36 42.061 C 36 40.654, 36.748 39.617, 38 39.290 C 40.336 38.679, 40.585 37.432, 38.596 36.300 C 37.824 35.860, 37.037 34.413, 36.846 33.085 C 36.532 30.893, 36.374 30.823, 35.136 32.325 M 149 33.424 C 149 34.876, 148.325 36.322, 147.500 36.638 C 145.404 37.443, 145.631 38.748, 147.998 39.499 C 149.096 39.848, 150.290 41.306, 150.649 42.739 L 151.303 45.344 153.062 43.172 C 154.055 41.946, 155.958 41, 157.433 41 C 159.916 41, 159.973 40.888, 158.566 38.740 C 157.568 37.217, 157.392 35.995, 158.027 34.990 C 159.552 32.578, 159.183 32.136, 155.750 32.260 C 153.963 32.325, 151.713 32.019, 150.750 31.582 C 149.324 30.934, 149 31.275, 149 33.424 M 114.851 45.484 C 117.100 47.516, 120.185 51.724, 121.707 54.834 C 123.998 59.517, 124.467 61.778, 124.437 67.994 C 124.395 76.857, 122.209 82.549, 116.364 89.019 C 112.825 92.936, 112.711 93.231, 115.002 92.558 C 120.435 90.962, 130.603 85.745, 136.542 81.507 C 142.651 77.148, 149 70.318, 149 68.106 C 149 66.511, 138.124 55.870, 132.634 52.092 C 127.988 48.896, 117.663 43.809, 113.131 42.483 C 111.231 41.927, 111.573 42.523, 114.851 45.484 M 94 48.025 C 94 50.357, 94.443 51, 96.050 51 C 101.418 51, 108.207 57.343, 110.012 64.045 C 112.240 72.320, 106.637 82.035, 98.360 84.249 C 94.533 85.272, 94 85.756, 94 88.207 C 94 91.333, 94.613 91.496, 100.142 89.839 C 105.317 88.289, 111.846 82.549, 114.114 77.556 C 116.295 72.754, 116.551 64.252, 114.652 59.718 C 111.664 52.589, 104.898 47.127, 97.250 45.669 C 94.173 45.083, 94 45.208, 94 48.025 M 88.750 51.689 C 86.447 52.291, 86.497 52.642, 89.954 60.114 L 92.908 66.500 92.954 58.750 C 93.001 50.784, 92.895 50.606, 88.750 51.689 M 77.444 62.091 C 77.073 62.691, 76.769 65.313, 76.769 67.918 C 76.769 76.520, 81.491 82.287, 90.250 84.381 L 93 85.038 93 76.532 L 93 68.025 86.025 64.513 C 78.159 60.551, 78.360 60.608, 77.444 62.091 M 160.104 70.250 C 156.482 76.166, 147.983 85.526, 141.653 90.569 C 129.825 99.993, 117.451 105.295, 102.055 107.536 C 94.188 108.681, 96.254 108.790, 127.750 108.890 L 162 109 162 88.500 C 162 77.225, 161.883 68, 161.741 68 C 161.598 68, 160.861 69.013, 160.104 70.250" stroke="none" fill="#0354fc" fill-rule="evenodd"/>
</svg>