<svg xmlns="http://www.w3.org/2000/svg" width="100%" height="auto" viewBox="0 0 68 56" version="1.1" preserveAspectRatio="xMidYMid meet" style="max-width: 100%; max-height: 70vh;">
	<path d="M 33.558 18.953 C 29.122 21.877, 26.011 27.704, 26.005 33.102 C 25.991 45.479, 41.011 53.046, 51.426 45.910 C 60.332 39.808, 60.170 25.585, 51.125 19.439 C 46.485 16.286, 37.961 16.050, 33.558 18.953 M 37.254 28.721 L 40.975 32.441 37.302 36.202 C 32.499 41.121, 33.896 42.484, 38.817 37.679 L 42.596 33.988 45.980 37.479 C 47.841 39.399, 49.588 40.745, 49.863 40.470 C 50.138 40.195, 48.843 38.402, 46.985 36.485 L 43.608 33 46.985 29.515 C 51.391 24.970, 50.030 23.609, 45.485 28.015 L 42 31.392 38.702 28.196 C 36.889 26.438, 34.984 25, 34.469 25 C 33.954 25, 35.208 26.674, 37.254 28.721" stroke="none" fill="black" fill-rule="evenodd"/>
</svg>